# File created by Blade
# Date/Time:  Thu Sep 25 18:48:06 2014
# Frame Rate: 120.000 fps
#------------------------------------------------------
:FULLY-SPECIFIED
:DEGREES
2264
root 0.803772 32.634644 2.762025 -0.039529 -6.562995 -0.860021
Spine -4.753127 -2.710096 -5.485051
Head 2.580949 -0.589894 14.504343
LeftShoulder -2.107466 37.984459 5.628668
LeftArm 103.801290 75.013991 14.140728
LeftForeArm 40.569054 -0.000000 105.741526
LeftHand -8.060052 -0.000000 -20.642170
LeftHandThumb1 -26.253704 0.000000 33.147579
RightShoulder -19.693547 16.755382 -32.658586
RightArm 16.646772 50.539805 50.650722
RightForeArm 35.463164 -0.000000 141.611483
RightHand 8.091222 -0.000000 -6.052799
RightHandThumb1 -24.326973 -0.000000 -32.862282
LeftUpLeg 9.190568 12.809172 6.327755
LeftLeg 0.051562 -0.000000 -0.000000
LeftFoot -13.576015 4.490156 -15.238498
LeftToeBase 10.927318 -0.000000 -0.000000
RightUpLeg 5.865715 -5.034810 -5.961340
RightLeg 2.259764 -0.000000 -0.000000
RightFoot -9.610734 -1.318280 4.537423
RightToeBase 0.468467 -0.000000 -0.000000
2265
root 0.799463 32.628882 2.754460 -0.268348 -6.554838 -0.873344
Spine -4.167833 -2.382656 -5.631226
Head 1.847841 -0.790949 14.690899
LeftShoulder -2.271593 38.185029 5.857135
LeftArm 100.287613 75.620642 10.746959
LeftForeArm 41.003295 0.000000 104.969387
LeftHand -7.299349 -0.000000 -21.754609
LeftHandThumb1 -26.253704 0.000000 33.147579
RightShoulder -19.807499 16.131012 -31.912560
RightArm 14.397345 48.798743 49.507706
RightForeArm 34.973742 -0.000000 141.187798
RightHand 7.622795 -0.000000 -6.219153
RightHandThumb1 -24.326973 -0.000000 -32.862282
LeftUpLeg 9.333537 12.774591 6.392212
LeftLeg 0.218609 -0.000000 -0.000000
LeftFoot -13.707737 4.494818 -15.197752
LeftToeBase 10.896687 -0.000000 -0.000000
RightUpLeg 6.031269 -5.032253 -5.960958
RightLeg 2.376081 -0.000000 -0.000000
RightFoot -9.715220 -1.291946 4.534474
RightToeBase 0.486367 -0.000000 -0.000000
2266
root 0.796145 32.622593 2.747585 -0.528155 -6.532958 -0.875072
Spine -3.525322 -2.047301 -5.785666
Head 1.061320 -1.007826 14.894157
LeftShoulder -2.507785 38.456641 6.050847
LeftArm 96.653604 76.052343 7.281299
LeftForeArm 41.103272 -0.000000 104.171131
LeftHand -6.964710 0.000000 -22.438688
LeftHandThumb1 -26.253704 0.000000 33.147579
RightShoulder -19.956373 15.629757 -31.181676
RightArm 12.233063 46.798393 48.468527
RightForeArm 34.216803 0.000000 140.655075
RightHand 7.810653 -0.000000 -5.984519
RightHandThumb1 -24.326973 -0.000000 -32.862282
LeftUpLeg 9.501808 12.704030 6.443763
LeftLeg 0.393456 -0.000000 -0.000000
LeftFoot -13.823516 4.543025 -15.005986
LeftToeBase 10.732420 -0.000000 -0.000000
RightUpLeg 6.231927 -5.058698 -5.982079
RightLeg 2.494300 -0.000000 -0.000000
RightFoot -9.848908 -1.227015 4.570607
RightToeBase 0.591021 -0.000000 -0.000000
2267
root 0.792937 32.616115 2.742365 -0.739964 -6.537571 -0.915885
Spine -2.963194 -1.636513 -5.822205
Head 0.316776 -1.287205 14.953886
LeftShoulder -2.758750 38.740063 6.160034
LeftArm 93.266671 76.423629 4.167432
LeftForeArm 41.186179 -0.000000 103.386809
LeftHand -6.522583 -0.000000 -22.535884
LeftHandThumb1 -26.253704 0.000000 33.147579
RightShoulder -20.173780 15.233642 -30.675077
RightArm 10.041979 44.730791 47.640803
RightForeArm 33.505987 -0.000000 140.210497
RightHand 7.056527 -0.000000 -6.165580
RightHandThumb1 -24.326973 -0.000000 -32.862282
LeftUpLeg 9.639302 12.697401 6.538213
LeftLeg 0.557056 -0.000000 -0.000000
LeftFoot -14.011301 4.506431 -15.115836
LeftToeBase 10.884229 -0.000000 -0.000000
RightUpLeg 6.393482 -5.052614 -5.957993
RightLeg 2.589925 -0.000000 -0.000000
RightFoot -9.911903 -1.218531 4.498271
RightToeBase 0.514530 -0.000000 -0.000000
2268
root 0.789478 32.610486 2.734774 -0.934639 -6.465038 -0.949645
Spine -2.433685 -1.297478 -5.898341
Head -0.446565 -1.527081 15.103514
LeftShoulder -3.078942 39.006958 6.303095
LeftArm 89.988871 76.720067 1.136836
LeftForeArm 41.281658 -0.000000 102.482435
LeftHand -6.178454 -0.000000 -22.477027
LeftHandThumb1 -26.253704 0.000000 33.147579
RightShoulder -20.401196 14.824836 -29.974814
RightArm 8.169380 42.369189 46.904378
RightForeArm 32.958680 0.000000 139.662465
RightHand 6.955714 0.000000 -6.269673
RightHandThumb1 -24.326973 -0.000000 -32.862282
LeftUpLeg 9.727243 12.578205 6.608402
LeftLeg 0.739496 -0.000000 -0.000000
LeftFoot -14.188676 4.548550 -15.056227
LeftToeBase 10.940364 -0.000000 -0.000000
RightUpLeg 6.549069 -5.110821 -5.937568
RightLeg 2.690176 -0.000000 -0.000000
RightFoot -9.997723 -1.211900 4.488099
RightToeBase 0.513634 -0.000000 -0.000000
2269
root 0.784491 32.610717 2.731041 -1.374784 -6.449423 -1.013347
Spine -1.491689 -1.100958 -5.976399
Head -1.391820 -1.486164 15.457429
LeftShoulder -3.634657 39.184432 6.329634
LeftArm 85.345604 76.846663 -3.467340
LeftForeArm 41.042746 -0.000000 101.145161
LeftHand -8.080887 -0.000000 -23.317859
LeftHandThumb1 -26.253704 0.000000 33.147579
RightShoulder -20.369841 14.579253 -29.117295
RightArm 6.387406 40.212551 46.295279
RightForeArm 32.466473 -0.000000 139.125527
RightHand 6.437554 -0.000000 -6.259198
RightHandThumb1 -24.326973 -0.000000 -32.862282
LeftUpLeg 10.095779 12.478923 6.766463
LeftLeg 0.896629 -0.000000 -0.000000
LeftFoot -14.290933 4.583969 -15.040829
LeftToeBase 10.910428 -0.000000 -0.000000
RightUpLeg 6.953430 -5.081412 -5.906085
RightLeg 2.773259 -0.000000 -0.000000
RightFoot -10.024830 -1.180111 4.555122
RightToeBase 0.584252 -0.000000 -0.000000
2270
root 0.780015 32.610165 2.725914 -1.704673 -6.369973 -1.069652
Spine -0.717435 -0.758333 -6.019834
Head -2.217970 -1.546161 15.774236
LeftShoulder -3.946807 39.290735 6.371844
LeftArm 80.503995 77.086447 -7.950234
LeftForeArm 40.185301 -0.000000 100.099252
LeftHand -9.877587 -0.000000 -24.816693
LeftHandThumb1 -26.253704 0.000000 33.147579
RightShoulder -20.504016 13.926603 -28.263562
RightArm 4.995717 38.125543 46.015055
RightForeArm 31.867968 -0.000000 138.512935
RightHand 6.157892 -0.000000 -6.109748
RightHandThumb1 -24.326973 -0.000000 -32.862282
LeftUpLeg 10.328464 12.326760 6.883779
LeftLeg 1.078352 -0.000000 -0.000000
LeftFoot -14.427903 4.621935 -15.044659
LeftToeBase 10.901068 -0.000000 -0.000000
RightUpLeg 7.259104 -5.134401 -5.875867
RightLeg 2.849506 -0.000000 -0.000000
RightFoot -10.033987 -1.161701 4.533879
RightToeBase 0.578679 -0.000000 -0.000000
2271
root 0.777981 32.594057 2.760423 -2.431859 -6.424216 -1.133713
Spine 0.489705 -0.012694 -5.911397
Head -3.203343 -1.773516 15.729278
LeftShoulder -3.943860 39.307611 6.558010
LeftArm 77.197225 77.260197 -10.626229
LeftForeArm 40.933958 -0.000000 99.164364
LeftHand -9.365916 -0.000000 -23.630362
LeftHandThumb1 -26.253704 0.000000 33.147579
RightShoulder -20.832255 13.178447 -27.707300
RightArm 3.734245 35.943219 45.991718
RightForeArm 31.291211 0.000000 137.882749
RightHand 5.741200 -0.000000 -6.110443
RightHandThumb1 -24.326973 -0.000000 -32.862282
LeftUpLeg 11.158307 12.362748 7.134548
LeftLeg 1.078477 -0.000000 -0.000000
LeftFoot -14.587222 4.533114 -14.974908
LeftToeBase 10.881055 -0.000000 -0.000000
RightUpLeg 8.058018 -5.139228 -5.913667
RightLeg 2.828332 -0.000000 -0.000000
RightFoot -10.123225 -1.005524 4.467610
RightToeBase 0.463492 -0.000000 -0.000000
2272
root 0.780514 32.586180 2.751696 -2.898323 -6.378035 -1.150485
Spine 1.497821 0.388110 -5.906455
Head -4.219868 -1.773440 15.877837
LeftShoulder -4.126356 39.106642 6.688734
LeftArm 73.349098 77.595601 -14.025671
LeftForeArm 41.490491 0.000000 98.029539
LeftHand -9.296720 -0.000000 -22.265286
LeftHandThumb1 -26.253704 0.000000 33.147579
RightShoulder -21.093753 12.724520 -27.041266
RightArm 2.603734 33.452420 46.099946
RightForeArm 30.585655 -0.000000 137.107890
RightHand 5.424206 -0.000000 -6.029495
RightHandThumb1 -24.326973 -0.000000 -32.862282
LeftUpLeg 11.516114 12.216673 7.220218
LeftLeg 1.261558 -0.000000 -0.000000
LeftFoot -14.766199 4.646667 -14.833419
LeftToeBase 10.847389 -0.000000 -0.000000
RightUpLeg 8.472725 -5.107058 -5.948194
RightLeg 2.931372 -0.000000 -0.000000
RightFoot -10.223839 -0.978023 4.492049
RightToeBase 0.444393 -0.000000 -0.000000
2273
root 0.770875 32.588041 2.720350 -3.073701 -6.299458 -1.239494
Spine 2.155882 0.560280 -5.894629
Head -5.094317 -1.568919 16.257593
LeftShoulder -4.738111 39.180594 6.613323
LeftArm 71.071034 77.632484 -15.909242
LeftForeArm 42.024334 0.000000 96.191234
LeftHand -12.890468 0.000000 -19.947835
LeftHandThumb1 -26.253704 0.000000 33.147579
RightShoulder -21.084066 12.234910 -26.191701
RightArm 1.487815 31.101524 46.288373
RightForeArm 29.832101 0.000000 136.317146
RightHand 5.150647 -0.000000 -5.750838
RightHandThumb1 -24.326973 -0.000000 -32.862282
LeftUpLeg 11.499401 12.059351 7.331041
LeftLeg 1.530572 -0.000000 -0.000000
LeftFoot -14.903064 4.702266 -14.871135
LeftToeBase 10.785357 -0.000000 -0.000000
RightUpLeg 8.542038 -5.036690 -5.826068
RightLeg 3.091324 -0.000000 -0.000000
RightFoot -10.256222 -1.137354 4.503448
RightToeBase 0.516812 -0.000000 -0.000000
2274
root 0.767117 32.582499 2.744863 -3.582199 -6.262159 -1.244408
Spine 3.000078 1.075889 -5.911402
Head -5.789238 -1.693277 16.504063
LeftShoulder -4.837690 39.300059 6.952681
LeftArm 67.941398 77.647554 -18.911537
LeftForeArm 42.140001 0.000000 94.626818
LeftHand -12.351902 0.000000 -20.523493
LeftHandThumb1 -26.253704 0.000000 33.147579
RightShoulder -21.329523 11.623819 -25.517856
RightArm 0.477918 28.534392 46.629311
RightForeArm 28.678476 -0.000000 135.355515
RightHand 4.906124 -0.000000 -5.517392
RightHandThumb1 -24.326973 -0.000000 -32.862282
LeftUpLeg 12.051060 12.044269 7.462361
LeftLeg 1.537226 -0.000000 -0.000000
LeftFoot -14.936917 4.648736 -14.812790
LeftToeBase 10.763031 -0.000000 -0.000000
RightUpLeg 9.127068 -5.093024 -5.891528
RightLeg 3.041132 -0.000000 -0.000000
RightFoot -10.287982 -1.032779 4.477224
RightToeBase 0.467053 -0.000000 -0.000000
2275
root 0.757049 32.577457 2.759655 -3.958012 -6.142451 -1.294175
Spine 3.690112 1.551147 -5.854261
Head -6.419966 -1.876577 16.654756
LeftShoulder -4.827171 39.331494 7.300685
LeftArm 64.254751 77.613386 -22.319713
LeftForeArm 42.219172 0.000000 93.283964
LeftHand -11.611412 -0.000000 -22.248916
LeftHandThumb1 -26.253704 0.000000 33.147579
RightShoulder -21.471698 10.932280 -24.878075
RightArm -0.669840 26.234850 47.092272
RightForeArm 27.290584 0.000000 134.389535
RightHand 4.632373 -0.000000 -5.238833
RightHandThumb1 -24.326973 -0.000000 -32.862282
LeftUpLeg 12.424237 11.987109 7.621430
LeftLeg 1.573049 -0.000000 -0.000000
LeftFoot -14.980520 4.566788 -14.753519
LeftToeBase 10.689694 -0.000000 -0.000000
RightUpLeg 9.583328 -5.200466 -5.882186
RightLeg 2.994206 -0.000000 -0.000000
RightFoot -10.317990 -0.968245 4.537628
RightToeBase 0.509567 -0.000000 -0.000000
2276
root 0.745962 32.572966 2.770783 -4.406211 -6.009124 -1.330220
Spine 4.517303 1.934329 -5.795522
Head -7.121771 -1.981483 16.701981
LeftShoulder -4.968499 39.276007 7.504509
LeftArm 62.808972 77.704056 -23.195776
LeftForeArm 43.364543 -0.000000 91.485900
LeftHand -9.947303 0.000000 -20.048203
LeftHandThumb1 -26.253704 0.000000 33.147579
RightShoulder -21.756540 10.681969 -24.433471
RightArm -1.794505 23.569135 47.748391
RightForeArm 25.476536 -0.000000 133.251073
RightHand 4.353025 -0.000000 -5.095892
RightHandThumb1 -24.326973 -0.000000 -32.862282
LeftUpLeg 12.864944 11.931020 7.784290
LeftLeg 1.610396 -0.000000 -0.000000
LeftFoot -15.078879 4.531425 -14.478832
LeftToeBase 10.985656 -0.000000 -0.000000
RightUpLeg 10.102291 -5.303238 -5.888877
RightLeg 2.955283 -0.000000 -0.000000
RightFoot -10.344621 -0.947097 4.530081
RightToeBase 0.528070 -0.000000 -0.000000
